<mxfile host="app.diagrams.net" agent="Mozilla/5.0 (Windows NT 10.0; Win64; x64) AppleWebKit/537.36 (KHTML, like Gecko) Chrome/129.0.0.0 Safari/537.36" version="27.1.3" pages="2">
  <diagram name="第 1 页" id="ovD-bxoLAg3NraZJKQms">
    <mxGraphModel dx="873" dy="401" grid="0" gridSize="10" guides="1" tooltips="1" connect="1" arrows="1" fold="1" page="1" pageScale="1" pageWidth="3300" pageHeight="4681" math="0" shadow="0">
      <root>
        <mxCell id="0" />
        <mxCell id="1" parent="0" />
        <mxCell id="r8Y3m8feluJLecaW_El3-38" value="" style="rounded=1;whiteSpace=wrap;html=1;fillColor=#e1d5e7;strokeColor=#9673a6;opacity=30;" vertex="1" parent="1">
          <mxGeometry x="51" y="255" width="284" height="96" as="geometry" />
        </mxCell>
        <mxCell id="r8Y3m8feluJLecaW_El3-5" style="edgeStyle=orthogonalEdgeStyle;rounded=0;orthogonalLoop=1;jettySize=auto;html=1;exitX=1;exitY=0.5;exitDx=0;exitDy=0;entryX=0;entryY=0.5;entryDx=0;entryDy=0;" edge="1" parent="1" source="r8Y3m8feluJLecaW_El3-1" target="r8Y3m8feluJLecaW_El3-2">
          <mxGeometry relative="1" as="geometry" />
        </mxCell>
        <mxCell id="r8Y3m8feluJLecaW_El3-8" style="edgeStyle=orthogonalEdgeStyle;rounded=0;orthogonalLoop=1;jettySize=auto;html=1;exitX=0.5;exitY=0;exitDx=0;exitDy=0;entryX=0.5;entryY=0;entryDx=0;entryDy=0;" edge="1" parent="1" source="r8Y3m8feluJLecaW_El3-1" target="r8Y3m8feluJLecaW_El3-2">
          <mxGeometry relative="1" as="geometry" />
        </mxCell>
        <mxCell id="r8Y3m8feluJLecaW_El3-9" style="edgeStyle=orthogonalEdgeStyle;rounded=0;orthogonalLoop=1;jettySize=auto;html=1;exitX=0.5;exitY=0;exitDx=0;exitDy=0;entryX=0.5;entryY=0;entryDx=0;entryDy=0;" edge="1" parent="1" source="r8Y3m8feluJLecaW_El3-1" target="r8Y3m8feluJLecaW_El3-3">
          <mxGeometry relative="1" as="geometry" />
        </mxCell>
        <mxCell id="r8Y3m8feluJLecaW_El3-10" style="edgeStyle=orthogonalEdgeStyle;rounded=0;orthogonalLoop=1;jettySize=auto;html=1;exitX=0.5;exitY=0;exitDx=0;exitDy=0;entryX=0.5;entryY=0;entryDx=0;entryDy=0;" edge="1" parent="1" source="r8Y3m8feluJLecaW_El3-1" target="r8Y3m8feluJLecaW_El3-4">
          <mxGeometry relative="1" as="geometry" />
        </mxCell>
        <mxCell id="r8Y3m8feluJLecaW_El3-1" value="x0" style="rounded=1;whiteSpace=wrap;html=1;" vertex="1" parent="1">
          <mxGeometry x="60" y="125" width="22" height="22" as="geometry" />
        </mxCell>
        <mxCell id="r8Y3m8feluJLecaW_El3-6" style="edgeStyle=orthogonalEdgeStyle;rounded=0;orthogonalLoop=1;jettySize=auto;html=1;exitX=1;exitY=0.5;exitDx=0;exitDy=0;entryX=0;entryY=0.5;entryDx=0;entryDy=0;" edge="1" parent="1" source="r8Y3m8feluJLecaW_El3-2" target="r8Y3m8feluJLecaW_El3-3">
          <mxGeometry relative="1" as="geometry" />
        </mxCell>
        <mxCell id="r8Y3m8feluJLecaW_El3-2" value="x1" style="rounded=1;whiteSpace=wrap;html=1;" vertex="1" parent="1">
          <mxGeometry x="111" y="125" width="22" height="22" as="geometry" />
        </mxCell>
        <mxCell id="r8Y3m8feluJLecaW_El3-3" value="x2" style="rounded=1;whiteSpace=wrap;html=1;" vertex="1" parent="1">
          <mxGeometry x="161" y="125" width="22" height="22" as="geometry" />
        </mxCell>
        <mxCell id="r8Y3m8feluJLecaW_El3-4" value="xk" style="rounded=1;whiteSpace=wrap;html=1;" vertex="1" parent="1">
          <mxGeometry x="246" y="125" width="22" height="22" as="geometry" />
        </mxCell>
        <mxCell id="r8Y3m8feluJLecaW_El3-7" value="" style="endArrow=none;dashed=1;html=1;rounded=0;entryX=0;entryY=0.5;entryDx=0;entryDy=0;exitX=1;exitY=0.5;exitDx=0;exitDy=0;" edge="1" parent="1" source="r8Y3m8feluJLecaW_El3-3" target="r8Y3m8feluJLecaW_El3-4">
          <mxGeometry width="50" height="50" relative="1" as="geometry">
            <mxPoint x="134" y="215" as="sourcePoint" />
            <mxPoint x="184" y="165" as="targetPoint" />
          </mxGeometry>
        </mxCell>
        <mxCell id="r8Y3m8feluJLecaW_El3-12" value="&lt;font style=&quot;color: rgb(44, 142, 158);&quot;&gt;q sample&lt;/font&gt;" style="text;html=1;align=center;verticalAlign=middle;resizable=0;points=[];autosize=1;strokeColor=none;fillColor=none;" vertex="1" parent="1">
          <mxGeometry x="51" y="78" width="67" height="26" as="geometry" />
        </mxCell>
        <mxCell id="r8Y3m8feluJLecaW_El3-14" value="xk" style="rounded=1;whiteSpace=wrap;html=1;" vertex="1" parent="1">
          <mxGeometry x="246" y="183" width="22" height="22" as="geometry" />
        </mxCell>
        <mxCell id="r8Y3m8feluJLecaW_El3-15" value="x0" style="rounded=1;whiteSpace=wrap;html=1;" vertex="1" parent="1">
          <mxGeometry x="60" y="183" width="22" height="22" as="geometry" />
        </mxCell>
        <mxCell id="r8Y3m8feluJLecaW_El3-20" style="edgeStyle=orthogonalEdgeStyle;rounded=0;orthogonalLoop=1;jettySize=auto;html=1;exitX=0;exitY=0.5;exitDx=0;exitDy=0;entryX=1;entryY=0.5;entryDx=0;entryDy=0;" edge="1" parent="1" source="r8Y3m8feluJLecaW_El3-16" target="r8Y3m8feluJLecaW_El3-15">
          <mxGeometry relative="1" as="geometry" />
        </mxCell>
        <mxCell id="r8Y3m8feluJLecaW_El3-16" value="x1" style="rounded=1;whiteSpace=wrap;html=1;" vertex="1" parent="1">
          <mxGeometry x="111" y="183" width="22" height="22" as="geometry" />
        </mxCell>
        <mxCell id="r8Y3m8feluJLecaW_El3-19" style="edgeStyle=orthogonalEdgeStyle;rounded=0;orthogonalLoop=1;jettySize=auto;html=1;exitX=0;exitY=0.5;exitDx=0;exitDy=0;entryX=1;entryY=0.5;entryDx=0;entryDy=0;" edge="1" parent="1" source="r8Y3m8feluJLecaW_El3-17" target="r8Y3m8feluJLecaW_El3-16">
          <mxGeometry relative="1" as="geometry" />
        </mxCell>
        <mxCell id="r8Y3m8feluJLecaW_El3-17" value="x2" style="rounded=1;whiteSpace=wrap;html=1;" vertex="1" parent="1">
          <mxGeometry x="161" y="183" width="22" height="22" as="geometry" />
        </mxCell>
        <mxCell id="r8Y3m8feluJLecaW_El3-18" value="" style="endArrow=none;dashed=1;html=1;rounded=0;entryX=0;entryY=0.5;entryDx=0;entryDy=0;exitX=1;exitY=0.5;exitDx=0;exitDy=0;" edge="1" parent="1" source="r8Y3m8feluJLecaW_El3-17" target="r8Y3m8feluJLecaW_El3-14">
          <mxGeometry width="50" height="50" relative="1" as="geometry">
            <mxPoint x="183" y="226" as="sourcePoint" />
            <mxPoint x="246" y="226" as="targetPoint" />
          </mxGeometry>
        </mxCell>
        <mxCell id="r8Y3m8feluJLecaW_El3-22" value="&lt;font style=&quot;&quot;&gt;p sample ( eps_model := UNet）&lt;/font&gt;" style="text;html=1;align=center;verticalAlign=middle;resizable=0;points=[];autosize=1;strokeColor=none;fillColor=none;fontColor=#8A296D;" vertex="1" parent="1">
          <mxGeometry x="51" y="214" width="192" height="26" as="geometry" />
        </mxCell>
        <mxCell id="r8Y3m8feluJLecaW_El3-23" value="predict" style="text;html=1;align=center;verticalAlign=middle;whiteSpace=wrap;rounded=0;fontSize=8;" vertex="1" parent="1">
          <mxGeometry x="67" y="189" width="60" height="30" as="geometry" />
        </mxCell>
        <mxCell id="r8Y3m8feluJLecaW_El3-24" value="predict" style="text;html=1;align=center;verticalAlign=middle;whiteSpace=wrap;rounded=0;fontSize=8;" vertex="1" parent="1">
          <mxGeometry x="117" y="189" width="60" height="30" as="geometry" />
        </mxCell>
        <mxCell id="r8Y3m8feluJLecaW_El3-25" value="predict" style="text;html=1;align=center;verticalAlign=middle;whiteSpace=wrap;rounded=0;fontSize=8;" vertex="1" parent="1">
          <mxGeometry x="186" y="189" width="60" height="30" as="geometry" />
        </mxCell>
        <mxCell id="r8Y3m8feluJLecaW_El3-27" value="Gnoise" style="text;html=1;align=center;verticalAlign=middle;whiteSpace=wrap;rounded=0;fontSize=8;" vertex="1" parent="1">
          <mxGeometry x="66" y="133" width="60" height="30" as="geometry" />
        </mxCell>
        <mxCell id="r8Y3m8feluJLecaW_El3-28" value="Gnoise" style="text;html=1;align=center;verticalAlign=middle;whiteSpace=wrap;rounded=0;fontSize=8;" vertex="1" parent="1">
          <mxGeometry x="117" y="133" width="60" height="30" as="geometry" />
        </mxCell>
        <mxCell id="r8Y3m8feluJLecaW_El3-29" value="Gnoise" style="text;html=1;align=center;verticalAlign=middle;whiteSpace=wrap;rounded=0;fontSize=8;" vertex="1" parent="1">
          <mxGeometry x="186" y="133" width="60" height="30" as="geometry" />
        </mxCell>
        <mxCell id="r8Y3m8feluJLecaW_El3-30" value="&lt;font style=&quot;&quot;&gt;DDPM&lt;/font&gt;" style="text;html=1;align=center;verticalAlign=middle;resizable=0;points=[];autosize=1;strokeColor=none;fillColor=none;fontColor=#8A296D;" vertex="1" parent="1">
          <mxGeometry x="282" y="214" width="53" height="26" as="geometry" />
        </mxCell>
        <mxCell id="r8Y3m8feluJLecaW_El3-46" style="edgeStyle=orthogonalEdgeStyle;rounded=0;orthogonalLoop=1;jettySize=auto;html=1;exitX=0;exitY=0.5;exitDx=0;exitDy=0;entryX=1;entryY=0.5;entryDx=0;entryDy=0;dashed=1;dashPattern=1 4;" edge="1" parent="1" source="r8Y3m8feluJLecaW_El3-31" target="r8Y3m8feluJLecaW_El3-36">
          <mxGeometry relative="1" as="geometry" />
        </mxCell>
        <mxCell id="r8Y3m8feluJLecaW_El3-31" value="xk" style="rounded=1;whiteSpace=wrap;html=1;" vertex="1" parent="1">
          <mxGeometry x="246" y="266" width="22" height="22" as="geometry" />
        </mxCell>
        <mxCell id="r8Y3m8feluJLecaW_El3-32" value="x0" style="rounded=1;whiteSpace=wrap;html=1;" vertex="1" parent="1">
          <mxGeometry x="60" y="266" width="22" height="22" as="geometry" />
        </mxCell>
        <mxCell id="r8Y3m8feluJLecaW_El3-45" style="edgeStyle=orthogonalEdgeStyle;rounded=0;orthogonalLoop=1;jettySize=auto;html=1;exitX=0;exitY=0.5;exitDx=0;exitDy=0;dashed=1;dashPattern=1 2;strokeWidth=1;" edge="1" parent="1" source="r8Y3m8feluJLecaW_El3-34" target="r8Y3m8feluJLecaW_El3-32">
          <mxGeometry relative="1" as="geometry" />
        </mxCell>
        <mxCell id="r8Y3m8feluJLecaW_El3-34" value="x1" style="rounded=1;whiteSpace=wrap;html=1;" vertex="1" parent="1">
          <mxGeometry x="111" y="266" width="22" height="22" as="geometry" />
        </mxCell>
        <mxCell id="r8Y3m8feluJLecaW_El3-35" style="edgeStyle=orthogonalEdgeStyle;rounded=0;orthogonalLoop=1;jettySize=auto;html=1;exitX=0;exitY=0.5;exitDx=0;exitDy=0;entryX=1;entryY=0.5;entryDx=0;entryDy=0;dashed=1;dashPattern=1 2;" edge="1" parent="1" source="r8Y3m8feluJLecaW_El3-36" target="r8Y3m8feluJLecaW_El3-34">
          <mxGeometry relative="1" as="geometry" />
        </mxCell>
        <mxCell id="r8Y3m8feluJLecaW_El3-47" style="edgeStyle=orthogonalEdgeStyle;rounded=0;orthogonalLoop=1;jettySize=auto;html=1;exitX=0.5;exitY=1;exitDx=0;exitDy=0;entryX=0.5;entryY=1;entryDx=0;entryDy=0;" edge="1" parent="1" source="r8Y3m8feluJLecaW_El3-36" target="r8Y3m8feluJLecaW_El3-32">
          <mxGeometry relative="1" as="geometry" />
        </mxCell>
        <mxCell id="r8Y3m8feluJLecaW_El3-36" value="x2" style="rounded=1;whiteSpace=wrap;html=1;" vertex="1" parent="1">
          <mxGeometry x="161" y="266" width="22" height="22" as="geometry" />
        </mxCell>
        <mxCell id="r8Y3m8feluJLecaW_El3-39" value="&lt;font style=&quot;&quot;&gt;p sample ( eps_model := UNet）&lt;/font&gt;" style="text;html=1;align=center;verticalAlign=middle;resizable=0;points=[];autosize=1;strokeColor=none;fillColor=none;fontColor=#8A296D;" vertex="1" parent="1">
          <mxGeometry x="51" y="323" width="192" height="26" as="geometry" />
        </mxCell>
        <mxCell id="r8Y3m8feluJLecaW_El3-40" value="predict (Only in selected sequence)" style="text;html=1;align=center;verticalAlign=middle;whiteSpace=wrap;rounded=0;fontSize=8;" vertex="1" parent="1">
          <mxGeometry x="45" y="301" width="161" height="30" as="geometry" />
        </mxCell>
        <mxCell id="r8Y3m8feluJLecaW_El3-43" value="&lt;font style=&quot;&quot;&gt;DDIM&lt;/font&gt;" style="text;html=1;align=center;verticalAlign=middle;resizable=0;points=[];autosize=1;strokeColor=none;fillColor=none;fontColor=#8A296D;" vertex="1" parent="1">
          <mxGeometry x="286" y="325" width="49" height="26" as="geometry" />
        </mxCell>
        <mxCell id="r8Y3m8feluJLecaW_El3-44" value="exactly" style="text;html=1;align=center;verticalAlign=middle;whiteSpace=wrap;rounded=0;fontSize=8;" vertex="1" parent="1">
          <mxGeometry x="118" y="251" width="60" height="30" as="geometry" />
        </mxCell>
        <mxCell id="r8Y3m8feluJLecaW_El3-21" value="" style="rounded=1;whiteSpace=wrap;html=1;fillColor=#f8cecc;strokeColor=#b85450;opacity=30;" vertex="1" parent="1">
          <mxGeometry x="51" y="172" width="284" height="69" as="geometry" />
        </mxCell>
        <mxCell id="r8Y3m8feluJLecaW_El3-48" value="unexactly" style="text;html=1;align=center;verticalAlign=middle;whiteSpace=wrap;rounded=0;fontSize=8;" vertex="1" parent="1">
          <mxGeometry x="67" y="251" width="60" height="30" as="geometry" />
        </mxCell>
        <mxCell id="r8Y3m8feluJLecaW_El3-49" value="Gnoise" style="text;html=1;align=center;verticalAlign=middle;whiteSpace=wrap;rounded=0;fontSize=8;" vertex="1" parent="1">
          <mxGeometry x="58" y="95" width="60" height="30" as="geometry" />
        </mxCell>
        <mxCell id="r8Y3m8feluJLecaW_El3-13" value="" style="rounded=1;whiteSpace=wrap;html=1;fillColor=#dae8fc;strokeColor=#6c8ebf;opacity=30;" vertex="1" parent="1">
          <mxGeometry x="51" y="78" width="230" height="80" as="geometry" />
        </mxCell>
      </root>
    </mxGraphModel>
  </diagram>
  <diagram id="jmVJbc63kUlY9ldtbJyO" name="第 2 页">
    <mxGraphModel dx="1047" dy="503" grid="1" gridSize="10" guides="1" tooltips="1" connect="1" arrows="1" fold="1" page="1" pageScale="1" pageWidth="827" pageHeight="1169" math="0" shadow="0">
      <root>
        <mxCell id="0" />
        <mxCell id="1" parent="0" />
        <mxCell id="UfOEyy3D_eDfJKP1HH6v-1" value="教务员" style="shape=umlActor;verticalLabelPosition=bottom;verticalAlign=top;html=1;outlineConnect=0;" vertex="1" parent="1">
          <mxGeometry x="140" y="40" width="30" height="60" as="geometry" />
        </mxCell>
        <mxCell id="UfOEyy3D_eDfJKP1HH6v-2" value="" style="rounded=1;whiteSpace=wrap;html=1;" vertex="1" parent="1">
          <mxGeometry x="145" y="150" width="20" height="230" as="geometry" />
        </mxCell>
        <mxCell id="UfOEyy3D_eDfJKP1HH6v-3" value="" style="endArrow=none;dashed=1;html=1;rounded=0;" edge="1" parent="1">
          <mxGeometry width="50" height="50" relative="1" as="geometry">
            <mxPoint x="155" y="390" as="sourcePoint" />
            <mxPoint x="155" y="130" as="targetPoint" />
          </mxGeometry>
        </mxCell>
        <mxCell id="UfOEyy3D_eDfJKP1HH6v-33" style="edgeStyle=orthogonalEdgeStyle;rounded=0;orthogonalLoop=1;jettySize=auto;html=1;exitX=0;exitY=1;exitDx=0;exitDy=0;entryX=1;entryY=1;entryDx=0;entryDy=0;dashed=1;" edge="1" parent="1" source="UfOEyy3D_eDfJKP1HH6v-4" target="UfOEyy3D_eDfJKP1HH6v-2">
          <mxGeometry relative="1" as="geometry">
            <Array as="points">
              <mxPoint x="210" y="380" />
              <mxPoint x="210" y="380" />
            </Array>
          </mxGeometry>
        </mxCell>
        <mxCell id="UfOEyy3D_eDfJKP1HH6v-4" value="" style="rounded=1;whiteSpace=wrap;html=1;" vertex="1" parent="1">
          <mxGeometry x="240" y="150" width="20" height="230" as="geometry" />
        </mxCell>
        <mxCell id="UfOEyy3D_eDfJKP1HH6v-5" value="" style="endArrow=none;dashed=1;html=1;rounded=0;entryX=0.5;entryY=1;entryDx=0;entryDy=0;" edge="1" parent="1" target="UfOEyy3D_eDfJKP1HH6v-6">
          <mxGeometry width="50" height="50" relative="1" as="geometry">
            <mxPoint x="250" y="390" as="sourcePoint" />
            <mxPoint x="250" y="130" as="targetPoint" />
          </mxGeometry>
        </mxCell>
        <mxCell id="UfOEyy3D_eDfJKP1HH6v-6" value="&lt;div&gt;&amp;lt;&amp;lt;Boundary&amp;gt;&amp;gt;&lt;/div&gt;SetUpCourseUI" style="rounded=0;whiteSpace=wrap;html=1;" vertex="1" parent="1">
          <mxGeometry x="205" y="70" width="90" height="30" as="geometry" />
        </mxCell>
        <mxCell id="UfOEyy3D_eDfJKP1HH6v-23" style="edgeStyle=orthogonalEdgeStyle;rounded=0;orthogonalLoop=1;jettySize=auto;html=1;exitX=1;exitY=0.25;exitDx=0;exitDy=0;entryX=0;entryY=0.25;entryDx=0;entryDy=0;" edge="1" parent="1" source="UfOEyy3D_eDfJKP1HH6v-7" target="UfOEyy3D_eDfJKP1HH6v-10">
          <mxGeometry relative="1" as="geometry" />
        </mxCell>
        <mxCell id="UfOEyy3D_eDfJKP1HH6v-9" value="&lt;div&gt;&amp;lt;&amp;lt;Controller&amp;gt;&amp;gt;&lt;/div&gt;SetUpCourseManager" style="rounded=0;whiteSpace=wrap;html=1;" vertex="1" parent="1">
          <mxGeometry x="310" y="70" width="120" height="30" as="geometry" />
        </mxCell>
        <mxCell id="UfOEyy3D_eDfJKP1HH6v-10" value="" style="rounded=1;whiteSpace=wrap;html=1;" vertex="1" parent="1">
          <mxGeometry x="475" y="200" width="20" height="40" as="geometry" />
        </mxCell>
        <mxCell id="UfOEyy3D_eDfJKP1HH6v-12" value="&lt;div&gt;&amp;lt;&amp;lt;Entity&amp;gt;&amp;gt;&lt;/div&gt;CourseLibrary" style="rounded=0;whiteSpace=wrap;html=1;" vertex="1" parent="1">
          <mxGeometry x="440" y="70" width="90" height="30" as="geometry" />
        </mxCell>
        <mxCell id="UfOEyy3D_eDfJKP1HH6v-13" value="" style="endArrow=classic;html=1;rounded=0;exitX=1.004;exitY=0.075;exitDx=0;exitDy=0;exitPerimeter=0;" edge="1" parent="1" source="UfOEyy3D_eDfJKP1HH6v-2">
          <mxGeometry width="50" height="50" relative="1" as="geometry">
            <mxPoint x="180" y="170" as="sourcePoint" />
            <mxPoint x="240" y="167" as="targetPoint" />
          </mxGeometry>
        </mxCell>
        <mxCell id="UfOEyy3D_eDfJKP1HH6v-16" value="" style="endArrow=classic;html=1;rounded=0;exitX=1.004;exitY=0.075;exitDx=0;exitDy=0;exitPerimeter=0;entryX=0.047;entryY=0.132;entryDx=0;entryDy=0;entryPerimeter=0;" edge="1" parent="1" target="UfOEyy3D_eDfJKP1HH6v-7">
          <mxGeometry width="50" height="50" relative="1" as="geometry">
            <mxPoint x="260" y="190" as="sourcePoint" />
            <mxPoint x="335" y="190" as="targetPoint" />
          </mxGeometry>
        </mxCell>
        <mxCell id="UfOEyy3D_eDfJKP1HH6v-22" value="" style="rounded=1;whiteSpace=wrap;html=1;" vertex="1" parent="1">
          <mxGeometry x="475" y="260" width="20" height="60" as="geometry" />
        </mxCell>
        <mxCell id="UfOEyy3D_eDfJKP1HH6v-24" value="" style="endArrow=classic;html=1;rounded=0;exitX=1.004;exitY=0.075;exitDx=0;exitDy=0;exitPerimeter=0;" edge="1" parent="1" target="UfOEyy3D_eDfJKP1HH6v-7">
          <mxGeometry width="50" height="50" relative="1" as="geometry">
            <mxPoint x="375" y="264.65999999999997" as="sourcePoint" />
            <mxPoint x="470" y="265" as="targetPoint" />
          </mxGeometry>
        </mxCell>
        <mxCell id="UfOEyy3D_eDfJKP1HH6v-28" style="edgeStyle=orthogonalEdgeStyle;rounded=0;orthogonalLoop=1;jettySize=auto;html=1;exitX=1;exitY=0.75;exitDx=0;exitDy=0;entryX=0;entryY=0.5;entryDx=0;entryDy=0;" edge="1" parent="1" source="UfOEyy3D_eDfJKP1HH6v-7" target="UfOEyy3D_eDfJKP1HH6v-22">
          <mxGeometry relative="1" as="geometry" />
        </mxCell>
        <mxCell id="UfOEyy3D_eDfJKP1HH6v-31" style="edgeStyle=orthogonalEdgeStyle;rounded=0;orthogonalLoop=1;jettySize=auto;html=1;exitX=0;exitY=1;exitDx=0;exitDy=0;entryX=1;entryY=0.783;entryDx=0;entryDy=0;entryPerimeter=0;dashed=1;" edge="1" parent="1" source="UfOEyy3D_eDfJKP1HH6v-7" target="UfOEyy3D_eDfJKP1HH6v-4">
          <mxGeometry relative="1" as="geometry">
            <mxPoint x="270" y="330" as="targetPoint" />
            <Array as="points">
              <mxPoint x="340" y="330" />
              <mxPoint x="340" y="330" />
            </Array>
          </mxGeometry>
        </mxCell>
        <mxCell id="UfOEyy3D_eDfJKP1HH6v-7" value="" style="rounded=1;whiteSpace=wrap;html=1;" vertex="1" parent="1">
          <mxGeometry x="360" y="170" width="20" height="160" as="geometry" />
        </mxCell>
        <mxCell id="UfOEyy3D_eDfJKP1HH6v-26" style="edgeStyle=orthogonalEdgeStyle;rounded=0;orthogonalLoop=1;jettySize=auto;html=1;exitX=0;exitY=0.75;exitDx=0;exitDy=0;dashed=1;" edge="1" parent="1" source="UfOEyy3D_eDfJKP1HH6v-10">
          <mxGeometry relative="1" as="geometry">
            <mxPoint x="380" y="230" as="targetPoint" />
            <Array as="points" />
          </mxGeometry>
        </mxCell>
        <mxCell id="UfOEyy3D_eDfJKP1HH6v-27" style="edgeStyle=orthogonalEdgeStyle;rounded=0;orthogonalLoop=1;jettySize=auto;html=1;exitX=0;exitY=0.75;exitDx=0;exitDy=0;dashed=1;" edge="1" parent="1">
          <mxGeometry relative="1" as="geometry">
            <mxPoint x="475" y="300" as="sourcePoint" />
            <mxPoint x="380" y="300" as="targetPoint" />
            <Array as="points" />
          </mxGeometry>
        </mxCell>
        <mxCell id="UfOEyy3D_eDfJKP1HH6v-11" value="" style="endArrow=none;dashed=1;html=1;rounded=0;entryX=0.5;entryY=1;entryDx=0;entryDy=0;" edge="1" parent="1" target="UfOEyy3D_eDfJKP1HH6v-12">
          <mxGeometry width="50" height="50" relative="1" as="geometry">
            <mxPoint x="485" y="390" as="sourcePoint" />
            <mxPoint x="485" y="130" as="targetPoint" />
            <Array as="points" />
          </mxGeometry>
        </mxCell>
        <mxCell id="UfOEyy3D_eDfJKP1HH6v-8" value="" style="endArrow=none;dashed=1;html=1;rounded=0;entryX=0.5;entryY=1;entryDx=0;entryDy=0;" edge="1" parent="1" target="UfOEyy3D_eDfJKP1HH6v-9">
          <mxGeometry width="50" height="50" relative="1" as="geometry">
            <mxPoint x="370" y="390" as="sourcePoint" />
            <mxPoint x="365" y="130" as="targetPoint" />
          </mxGeometry>
        </mxCell>
        <mxCell id="UfOEyy3D_eDfJKP1HH6v-34" value="待创建课程信息" style="text;html=1;align=center;verticalAlign=middle;resizable=0;points=[];autosize=1;strokeColor=none;fillColor=none;fontSize=8;" vertex="1" parent="1">
          <mxGeometry x="160" y="150" width="80" height="20" as="geometry" />
        </mxCell>
        <mxCell id="UfOEyy3D_eDfJKP1HH6v-35" value="课程保存成功提示" style="text;html=1;align=center;verticalAlign=middle;resizable=0;points=[];autosize=1;strokeColor=none;fillColor=none;fontSize=8;" vertex="1" parent="1">
          <mxGeometry x="155" y="360" width="90" height="20" as="geometry" />
        </mxCell>
        <mxCell id="UfOEyy3D_eDfJKP1HH6v-36" value="发送待创建课程信息" style="text;html=1;align=center;verticalAlign=middle;resizable=0;points=[];autosize=1;strokeColor=none;fillColor=none;fontSize=8;" vertex="1" parent="1">
          <mxGeometry x="260" y="170" width="100" height="20" as="geometry" />
        </mxCell>
        <mxCell id="UfOEyy3D_eDfJKP1HH6v-38" value="检查信息合法" style="text;html=1;align=center;verticalAlign=middle;resizable=0;points=[];autosize=1;strokeColor=none;fillColor=none;fontSize=8;" vertex="1" parent="1">
          <mxGeometry x="390" y="190" width="70" height="20" as="geometry" />
        </mxCell>
        <mxCell id="UfOEyy3D_eDfJKP1HH6v-39" value="合法检查结果" style="text;html=1;align=center;verticalAlign=middle;resizable=0;points=[];autosize=1;strokeColor=none;fillColor=none;fontSize=8;" vertex="1" parent="1">
          <mxGeometry x="390" y="210" width="70" height="20" as="geometry" />
        </mxCell>
        <mxCell id="UfOEyy3D_eDfJKP1HH6v-40" value="创建并保存课程" style="text;html=1;align=center;verticalAlign=middle;resizable=0;points=[];autosize=1;strokeColor=none;fillColor=none;fontSize=8;" vertex="1" parent="1">
          <mxGeometry x="385" y="270" width="80" height="20" as="geometry" />
        </mxCell>
        <mxCell id="UfOEyy3D_eDfJKP1HH6v-41" value="课程保存结果" style="text;html=1;align=center;verticalAlign=middle;resizable=0;points=[];autosize=1;strokeColor=none;fillColor=none;fontSize=8;" vertex="1" parent="1">
          <mxGeometry x="390" y="300" width="70" height="20" as="geometry" />
        </mxCell>
        <mxCell id="UfOEyy3D_eDfJKP1HH6v-42" value="课程保存成功信息" style="text;html=1;align=center;verticalAlign=middle;resizable=0;points=[];autosize=1;strokeColor=none;fillColor=none;fontSize=8;" vertex="1" parent="1">
          <mxGeometry x="265" y="310" width="90" height="20" as="geometry" />
        </mxCell>
      </root>
    </mxGraphModel>
  </diagram>
</mxfile>
